# xmcd
#
# Track frame offsets:
#	150
#	14190
#	26972
#	40767
#	51347
#	64865
#	77357
#	91372
#	104130
#	119452
#	133732
#	150657
#	166127
#	181755
#
# Disc length: 2682 seconds
#
# Revision: 2
# Processed by: cddbd v1.4PL0 Copyright (c) Steve Scherf et al.
# Submitted via: audiograbber 1.82.00
#
DISCID=bd0a780e
DTITLE=Various Artist - Hot Hits Country Vol. 12
DYEAR=1994
DGENRE=Country
TTITLE0=Steve Wariner - It Won't Be Over You
TTITLE1=George Strait - Lovebug
TTITLE2=Doug Stone - Addicted To A Dollar
TTITLE3=George Jonesw Sammy Kershaw - Never Bit A Bullet Like This
TTITLE4=David Lee Murphy - Just Once
TTITLE5=Rick Trevino - Honky Tonk Crowd
TTITLE6=Martina McBride - Life #9
TTITLE7=Shenandoah - If Bubba Can Dance
TTITLE8=Ricky Van Shelton - Where Was I
TTITLE9=Mark Chesnutt - Woman, Sensuous Woman
TTITLE10=Lorrie Morgan - My Night To Howl
TTITLE11=Toby Keith - Wish I Didn't Know Now
TTITLE12=Reba McEntire - Why Haven't I Heard From You
TTITLE13=Vince Gill - Whenever You Come Around
EXTD=
EXTT0=
EXTT1=
EXTT2=
EXTT3=
EXTT4=
EXTT5=
EXTT6=
EXTT7=
EXTT8=
EXTT9=
EXTT10=
EXTT11=
EXTT12=
EXTT13=
PLAYORDER=
